<!-- Generated by IcoMoon.io -->
<svg version="1.1" xmlns="http://www.w3.org/2000/svg" width="32" height="32" viewBox="0 0 32 32">
<title>find-icon</title>
<path fill="#263036" d="M13.964 0c3.857 0 7.346 1.563 9.872 4.091 2.526 2.526 4.089 6.018 4.089 9.872 0 2.82-0.836 5.445-2.276 7.641l6.042 6.586-4.167 3.807-5.826-6.409c-2.214 1.477-4.875 2.339-7.734 2.339-3.857 0-7.346-1.563-9.872-4.091-2.529-2.529-4.091-6.018-4.091-9.872 0-3.857 1.563-7.346 4.089-9.875 2.529-2.526 6.018-4.089 9.875-4.089v0 0zM22.734 5.19c-2.245-2.245-5.346-3.633-8.771-3.633s-6.526 1.388-8.771 3.633c-2.247 2.245-3.635 5.346-3.635 8.773 0 3.424 1.388 6.526 3.633 8.771s5.346 3.633 8.771 3.633c3.424 0 6.526-1.388 8.771-3.633s3.633-5.346 3.633-8.771-1.385-6.529-3.63-8.773v0 0z"></path>
<path fill="#90caf8" d="M13.977 1.552v0c-6.852 0-12.406 5.552-12.406 12.404s5.557 12.404 12.406 12.404c6.849 0 12.404-5.552 12.404-12.404 0-6.849-5.552-12.404-12.404-12.404zM7.586 11.911c-0.258 0.547-0.909 0.781-1.456 0.523s-0.781-0.909-0.523-1.456c0.398-0.839 0.875-1.628 1.432-2.365 0.555-0.732 1.195-1.419 1.924-2.063 0.451-0.398 1.143-0.357 1.542 0.094s0.357 1.143-0.094 1.542c-0.607 0.536-1.148 1.12-1.622 1.745-0.471 0.622-0.872 1.281-1.203 1.979v0z"></path>
</svg>
